<svg xmlns="http://www.w3.org/2000/svg" viewBox="0 0 629.95 147.39"><defs><style>.cls-1{fill:#fff;}</style></defs><g id="Layer_2" data-name="Layer 2"><g id="Layer_1-2" data-name="Layer 1"><path class="cls-1" d="M399.7,49.63c-5-3-10.25-4.75-15.25.5-3.75,4.25-6.5,9.75-1,14.5,4.75,3.75,10,6.25,14.25,2C402,63.38,406.7,55.13,399.7,49.63Z"/><path class="cls-1" d="M608.94,80.88c-5.75-.75-9,.25-10.5,1-6.25,3-7.5,8-6.75,11,.5,1.75,1.25,4.75,8,9.75,10.25,7.5,15,12.25,16.5,16.75,3.5,11-7.75,23.5-27,25-9,.68-20-1.39-27.49-7.76-8.27,5.9-16.15,8.2-24.25,7.51a19.55,19.55,0,0,1-13-7c-5.25-7.25-3-14.5,2.75-24.25,6-10.5,11-18.75,6.75-23-6-5.5-16,3.75-20.75,9-10.25,10.75-14.75,17.25-20.75,30.25-4,7.5-3.5,11.75-7.25,12.75-5.57,2.17-11.52-.17-14.71-3.68a39.14,39.14,0,0,1-11,5.18c-7,2-14,.75-18.25-2.25a11.09,11.09,0,0,1-4.5-7.25,28.93,28.93,0,0,1-28.5,10.25c-7.86-1.51-12.24-6.49-14.36-12.52-10.73,8.84-20.32,13-28.39,12.52-5.25,0-11-3.5-13.5-6.75a15.22,15.22,0,0,1-2.45-3.75c-7.66,6.55-18.57,14.07-28.05,13.75-6.25-.25-11.5-2.5-14.75-6.25a37.08,37.08,0,0,1-6.5-15.25,144.84,144.84,0,0,0-7.75-29c-2.5-6.25-4.75-8.25-7.75-10.5l-1.75.25-8,13.5c-3.25,5.5-10.5,19.25-13.5,25.25-.25.75-7.5,14.5-8.5,17.75-2.13,6.21-11.44,1.08-15.77-5.64-1.58.88-3.17,1.69-4.73,2.39-13.25,6-34,7.5-42.5.5a23.48,23.48,0,0,1-5.84-6.74,96.39,96.39,0,0,1-26.41,10.74c-11.5,2.75-20.75-.25-25.25-7.5-3.75-7-2-16,4.5-27.25,3.75-6.75,22.25-42,22.5-42.5,8.75-16,20.5-36.75,11.5-40.75-12-5.25-32.5,19-46.75,45.75l-23.5,44.25c-.5,1-2.25,4.5-5.5,11.5-1.25,2.75-1.75,3.5-2,4.25-4.25,7-9.5,13.5-20.25,9.25-8.75-3.5-9.5-7.75-3.75-17.25l22-36.25C111,55.13,120,29.13,113,23.63c-14.5-10.25-46.75,40-59.5,61.75l-15,25.5c-5.5,9.25-7.25,12.5-8,14.25C24.7,136.38,19.7,147.88,5.7,140.88c-8-4-7.5-8.75,1-22.25,9-14,18-27.5,28.75-43.25,9-13.25,14.5-21.75,25.5-38.5,5.75-8.75,4.5-16.5-3-17.75-8.5-1.5-21.75,6.5-42.25,36.25-7,9.5-21-4-13-15.5,25.5-35.25,52-45,68.75-35.75,6,3.25,10.25,9.25,10.25,13.25v.5c17.25-15,30-19,42.25-13.25,10,4.5,11.75,15,11,21.25-.25.5,0,.25,3.25-3,3.25-3.5,7.75-8.25,12-10.75,9.5-7.25,26-7.75,37,.75,13,10,9.75,29.5-10.25,64.5-1,1.25-15,28-20.25,39.75-6,12.91,1.65,15,24.78.05.74-5.32,2.76-11.54,6.47-18.8,19.25-32.25,45.5-33.25,54.5-30,5,1.75,7.25,4.5,8.5,8,4.25,13.25-13.25,23.75-13.25,14.75-.5-5-3.5-5.75-8.25-5.75-8.75,0-17.5,6.75-23.25,16.5-5.5,9.25-5.75,18.5-.5,23,3.75,3.25,16.25,4.25,26.75-1.25A72,72,0,0,0,243,116.87c2.44-4.06,5.15-8.59,8.23-13.49,1.5-2.5,3.25-5.5,8.75-15.5a10.46,10.46,0,0,1-2-3c-1.25-2.75-2.75-5,.75-7.5,3.75-2,5-2.5,10-5.5l7.5-13.5,19-36.25a35.44,35.44,0,0,0,3.25-10.75,75,75,0,0,1,1.75-8.75C303.45-6.62,327,10.38,318,24.38c-5,7-15.5,23.75-22,34.75,15.75-11.75,35.75-26.75,49-35.5,23.5-15.75,41.5-25.75,54.25-21.5a9.6,9.6,0,0,1,7,9.5c-.5,7-3.5,12.75-10.75,19.25-4.25,4.25-14.5,9.5-16.75,3-.75-2,.5-4,1.5-5.5.75-1.75,1.75-3,1.25-4.5-.75-2.75-4.5-1.75-10,2.25-17,10.25-33.5,23.75-47.5,33.75-7.5,5.5-22.25,17.75-23.5,19.25l-.25,1c1.75,1.25,9.75-4,9.75.25,0,1.25,9.93,38.75,10,38.75,1.5,5.75,4,10.5,6.5,10.5,4.75,0,12.75-4.75,20.75-12,.61-.55,1.22-1.12,1.82-1.7,1.86-7.36,5.43-14.79,8.43-20.55,3.75-7.5,7.25-15.75,11.25-22,1.5-3.25,5.5-5.25,8.5-3.25,6.5,3.75,14.5,6.5,10.75,12.5L374.2,104.38c-5.25,9-7.75,21.5-.75,22.25,5.46.48,13.1-5.44,19.11-11a35.41,35.41,0,0,1,1.89-7.7c11.5-29.5,32.5-37.5,40-39.5,13.5-3.5,23.75,1.5,26.25,3.75,9.25,8.25,1.5,23.75-9,18.5-6.25-3.25-6.75-9-18.75-3.75-4,1.75-14.75,10.25-18.25,21-2,6-4.25,16.75,3.75,19,4.25,1.25,10.75,0,20.5-11.75,4.75-5.75,6.25-13.5,7.75-15.5,5.75-9.25,22.5.25,19.5,6.25-.25.75-2.25,3-5.75,8.25-3.25,4.5-5,11-2,12,2.25.75,7.5-2,12.5-5.25a20.41,20.41,0,0,1,3.94-2.09c4.69-9.16,11-22.09,15.81-34.16,3-7,2.5-9.75,4.25-14,2.75-5.5,21.75,1.25,18,10-1,2.5-1.75,3-2.5,4.75C522.2,70.13,537,65.63,549,72.63c10.75,6.5,10.5,16,5.5,25.75-9.5,18.5-11.75,23.75-10.25,26.25,1.6,2.74,5.29,2.14,9.73-.28-2-7.24,0-13.23,4-17.22a11.12,11.12,0,0,1,7.75-3.5,6.4,6.4,0,0,1,6.5,6.25,10.48,10.48,0,0,1-.25,4c-5.25,8.5,5.25,14.75,14.75,13.5,5.25-.75,8.25-2.75,7.5-7-.25-1.75-.75-3.5-6.75-7.75-7.5-5.25-15-11.75-16.5-18-2.25-13,10.5-23.25,19.25-26.25,18.5-5.25,32,.5,37.5,9,3.25,5.75,3,13-.75,16.75a18.3,18.3,0,0,1-13.5,5.25c-5-.25-9-2.5-9.25-6.25-.25-4,3.75-5.75,9-6.75C616.19,85.88,613.94,81.63,608.94,80.88Z"/><path class="cls-1" d="M588.2,44.8c0,9.28-15.82,21.1-22.37,21.1-4.73,0-5.82-4.73-2-7.1,3.46-1.63,7.27-3.82,8.91-7.45a13.77,13.77,0,0,1-1.45-5.82c0-5.82,5.09-8.91,10-8.91S588.2,39.71,588.2,44.8Z"/></g></g></svg>